<svg width="1021" height="378" xmlns="http://www.w3.org/2000/svg" xmlns:xlink="http://www.w3.org/1999/xlink" overflow="hidden"><defs><clipPath id="clip0"><rect x="0" y="0" width="1021" height="378"/></clipPath></defs><g clip-path="url(#clip0)"><rect x="0" y="0" width="1021" height="377.815" fill="#FFFFFF"/><path d="M213 113.112C213 103.083 221.134 94.9535 231.167 94.9535L372.833 94.9535C382.866 94.9535 391 103.083 391 113.112L391 185.742C391 195.77 382.866 203.9 372.833 203.9L231.167 203.9C221.134 203.9 213 195.77 213 185.742Z" stroke="#000000" stroke-width="4.00196" stroke-miterlimit="8" fill="#F8CBAD" fill-rule="evenodd"/><text font-family="Calibri,Calibri_MSFontService,sans-serif" font-weight="400" font-size="24" transform="matrix(1 0 0 0.99951 252.42 157)">Generator</text><text font-family="Calibri,Calibri_MSFontService,sans-serif" font-weight="400" font-size="24" transform="matrix(1 0 0 0.99951 12.9828 157)">Noise vector</text><text font-family="Calibri,Calibri_MSFontService,sans-serif" font-weight="400" font-size="24" transform="matrix(1 0 0 0.99951 476.196 157)">Fake image</text><path d="M670 113.112C670 103.083 678.134 94.9535 688.167 94.9535L829.833 94.9535C839.866 94.9535 848 103.083 848 113.112L848 185.742C848 195.77 839.866 203.9 829.833 203.9L688.167 203.9C678.134 203.9 670 195.77 670 185.742Z" stroke="#000000" stroke-width="4.00196" stroke-miterlimit="8" fill="#B4C7E7" fill-rule="evenodd"/><text font-family="Calibri,Calibri_MSFontService,sans-serif" font-weight="400" font-size="24" transform="matrix(1 0 0 0.99951 693.299 157)">Discriminator</text><text font-family="Calibri,Calibri_MSFontService,sans-serif" font-weight="400" font-size="24" transform="matrix(1 0 0 0.99951 477.363 325)">Real image</text><path d="M668 281.862C668 271.926 676.059 263.871 686 263.871L828 263.871C837.941 263.871 846 271.926 846 281.862L846 353.826C846 363.763 837.941 371.818 828 371.818L686 371.818C676.059 371.818 668 363.763 668 353.826Z" stroke="#000000" stroke-width="4.00196" stroke-miterlimit="8" fill="#B4C7E7" fill-rule="evenodd"/><text font-family="Calibri,Calibri_MSFontService,sans-serif" font-weight="400" font-size="24" transform="matrix(1 0 0 0.99951 691.747 325)">Discriminator</text><text font-family="Calibri,Calibri_MSFontService,sans-serif" font-weight="400" font-size="24" transform="matrix(1 0 0 0.99951 928.283 157)">0</text><text font-family="Calibri,Calibri_MSFontService,sans-serif" font-weight="400" font-size="24" transform="matrix(1 0 0 0.99951 928.283 325)">1</text><text font-family="Calibri,Calibri_MSFontService,sans-serif" font-weight="400" font-size="24" transform="matrix(1 0 0 0.99951 872.379 26)">Target</text><text font-family="Calibri,Calibri_MSFontService,sans-serif" font-weight="400" font-size="24" transform="matrix(1 0 0 0.99951 938.218 26)">output</text><text font-family="Calibri,Calibri_MSFontService,sans-serif" font-weight="400" font-size="24" transform="matrix(1 0 0 0.99951 436.499 26)">Discriminator input</text><path d="M160 139.682 179.5 139.682 179.5 129.936 199 149.427 179.5 168.917 179.5 159.172 160 159.172Z" stroke="#000000" stroke-width="4.00196" stroke-miterlimit="8" fill="#FFFFFF" fill-rule="evenodd"/><path d="M405 139.682 425.5 139.682 425.5 129.936 445 149.427 425.5 168.917 425.5 159.172 405 159.172Z" stroke="#000000" stroke-width="4.00196" stroke-miterlimit="8" fill="#FFFFFF" fill-rule="evenodd"/><path d="M617 139.682 636.5 139.682 636.5 129.936 656 149.427 636.5 168.917 636.5 159.172 617 159.172Z" stroke="#000000" stroke-width="4.00196" stroke-miterlimit="8" fill="#FFFFFF" fill-rule="evenodd"/><path d="M862 139.682 881.5 139.682 881.5 129.936 901 149.427 881.5 168.917 881.5 159.172 862 159.172Z" stroke="#000000" stroke-width="4.00196" stroke-miterlimit="8" fill="#FFFFFF" fill-rule="evenodd"/><path d="M617 308.349 637 308.349 637 298.854 656 317.844 637 336.835 637 327.34 617 327.34Z" stroke="#000000" stroke-width="4.00196" stroke-miterlimit="8" fill="#FFFFFF" fill-rule="evenodd"/><path d="M862 308.349 882 308.349 882 298.854 901 317.844 882 336.835 882 327.34 862 327.34Z" stroke="#000000" stroke-width="4.00196" stroke-miterlimit="8" fill="#FFFFFF" fill-rule="evenodd"/></g></svg>